HIERARCHY
ROOT Hips
{
	OFFSET 62.890800 8.863803 43.568401
	CHANNELS 6 Xposition Yposition Zposition Zrotation Xrotation Yrotation
	JOINT Chest
	{
		OFFSET -0.160400 1.630001 7.806301
		CHANNELS 6 Xposition Yposition Zposition Zrotation Xrotation Yrotation
		JOINT Chest2
		{
			OFFSET 0.000000 0.000000 3.197998
			CHANNELS 6 Xposition Yposition Zposition Zrotation Xrotation Yrotation
			JOINT Neck
			{
				OFFSET 0.000000 0.000001 7.440701
				CHANNELS 6 Xposition Yposition Zposition Zrotation Xrotation Yrotation
				JOINT Head
				{
					OFFSET 0.000000 0.000000 2.173901
					CHANNELS 6 Xposition Yposition Zposition Zrotation Xrotation Yrotation
					End Site
					{
						OFFSET 0.000000 0.000001 10.420303
					}
				}
			}
			JOINT LeftCollar
			{
				OFFSET 2.426399 -1.880099 4.759399
				CHANNELS 6 Xposition Yposition Zposition Zrotation Xrotation Yrotation
				JOINT LeftShoulder
				{
					OFFSET 4.420197 0.000000 0.000000
					CHANNELS 6 Xposition Yposition Zposition Zrotation Xrotation Yrotation
					JOINT LeftElbow
					{
						OFFSET 0.000000 -0.000001 -10.347099
						CHANNELS 6 Xposition Yposition Zposition Zrotation Xrotation Yrotation
						JOINT LeftWrist
						{
							OFFSET 0.000000 -0.000001 -12.496300
							CHANNELS 6 Xposition Yposition Zposition Zrotation Xrotation Yrotation
							End Site
							{
								OFFSET 0.000000 0.000000 -2.173901
							}
						}
					}
				}
			}
			JOINT RightCollar
			{
				OFFSET -2.781502 -1.903799 5.072601
				CHANNELS 6 Xposition Yposition Zposition Zrotation Xrotation Yrotation
				JOINT RightShoulder
				{
					OFFSET -4.012100 0.000000 0.000000
					CHANNELS 6 Xposition Yposition Zposition Zrotation Xrotation Yrotation
					JOINT RightElbow
					{
						OFFSET 0.000000 -0.000001 -10.346600
						CHANNELS 6 Xposition Yposition Zposition Zrotation Xrotation Yrotation
						JOINT RightWrist
						{
							OFFSET 0.000000 -0.000001 -12.562599
							CHANNELS 6 Xposition Yposition Zposition Zrotation Xrotation Yrotation
							End Site
							{
								OFFSET 0.000000 0.000000 -2.173901
							}
						}
					}
				}
			}
		}
	}
	JOINT LeftHip
	{
		OFFSET 2.047997 -0.047200 -2.693199
		CHANNELS 6 Xposition Yposition Zposition Zrotation Xrotation Yrotation
		JOINT LeftKnee
		{
			OFFSET 0.000000 -0.000001 -18.824400
			CHANNELS 6 Xposition Yposition Zposition Zrotation Xrotation Yrotation
			JOINT LeftAnkle
			{
				OFFSET 0.000000 -0.000002 -19.078199
				CHANNELS 6 Xposition Yposition Zposition Zrotation Xrotation Yrotation
				End Site
				{
					OFFSET 0.000000 -9.342100 0.000001
				}
			}
		}
	}
	JOINT RightHip
	{
		OFFSET -2.129898 -0.022300 -2.538300
		CHANNELS 6 Xposition Yposition Zposition Zrotation Xrotation Yrotation
		JOINT RightKnee
		{
			OFFSET 0.000000 -0.000001 -18.644600
			CHANNELS 6 Xposition Yposition Zposition Zrotation Xrotation Yrotation
			JOINT RightAnkle
			{
				OFFSET 0.000000 -0.000002 -18.801399
				CHANNELS 6 Xposition Yposition Zposition Zrotation Xrotation Yrotation
				End Site
				{
					OFFSET 0.000000 -8.914600 0.000001
				}
			}
		}
	}
}
MOTION
Frames: 5
Frame Time: 0.041667
4.327393 -37.621902 34.362537 -371.829761 9.389535 -26.994786 -0.160401 1.629999 7.806305 15.888939 0.241454 -20.149231 0.000012 -0.000002 3.197997 -18.997992 -11.108040 -2.016370 0.000006 0.000003 7.440705 -49.639090 -10.134398 13.095466 -0.000008 0.000001 2.173913 -5.504155 0.304812 -8.430488 2.426407 -1.880099 4.759404 15.126639 -3.563777 -3.136000 4.420196 -0.000004 -0.000004 -98.142674 2.639520 -143.050212 0.000006 0.000006 -10.347099 380.841431 -19.670144 1.694932 0.000000 0.000010 -12.496300 183.879935 187.150161 154.005398 -2.781499 -1.903803 5.072609 31.877709 17.998863 -20.826915 -4.012106 0.000002 0.000000 42.196595 18.932342 61.912134 -0.000003 -0.000002 -10.346591 23.475843 -0.351260 -0.886008 0.000000 -0.000005 -12.562597 994.106057 -186.280309 170.682903 2.047996 -0.047199 -2.693192 -17.917406 0.810048 -20.617773 0.000000 0.000000 -18.824402 185.476014 165.578074 -164.951022 0.000000 -0.000006 -19.078201 27.706072 14.042057 55.087747 -2.129895 -0.022298 -2.538301 -511.582207 -7.563061 -96.076269 0.000003 0.000002 -18.644600 389.669997 178.467638 107.075516 0.000000 0.000002 -18.801403 -43.710287 -13.200065 -60.861411
4.407997 -37.678802 34.496037 -371.921668 9.091240 -26.668142 -0.160399 1.630002 7.806302 15.765087 0.321166 -20.095178 0.000009 -0.000003 3.197997 -18.670343 -11.115926 -1.966606 0.000006 0.000008 7.440705 -49.602910 -10.250884 13.148316 -0.000005 0.000003 2.173914 -5.492214 0.261469 -8.179543 2.426411 -1.880094 4.759406 14.844018 -3.479887 -3.101643 4.420196 -0.000000 -0.000005 -97.061243 2.287324 -143.719570 0.000005 -0.000003 -10.347102 380.550055 -19.345947 1.515778 0.000009 -0.000003 -12.496296 184.836407 186.339828 154.815212 -2.781495 -1.903799 5.072608 31.813228 17.819842 -21.208893 -4.012103 0.000006 0.000004 41.255347 19.405276 62.156504 -0.000005 0.000001 -10.346598 22.503641 -0.507376 -0.932190 -0.000004 -0.000004 -12.562593 993.775039 -186.031841 170.304729 2.047991 -0.047202 -2.693197 -18.607722 1.565953 -20.372941 -0.000011 0.000001 -18.824400 186.336098 165.902877 -165.362199 -0.000002 -0.000003 -19.078197 27.722215 14.183636 54.731583 -2.129899 -0.022298 -2.538299 -511.684660 -7.609293 -95.307476 -0.000005 0.000002 -18.644602 389.765510 178.289739 107.477808 0.000004 0.000001 -18.801403 -43.629619 -13.141345 -60.690179
4.488590 -37.738304 34.630646 -372.013985 8.796225 -26.345768 -0.160397 1.630003 7.806299 15.643657 0.396268 -20.008897 0.000001 0.000002 3.197996 -18.312307 -11.139396 -1.912125 -0.000001 0.000012 7.440700 -49.510566 -10.344917 13.123405 -0.000006 0.000001 2.173904 -5.506238 0.144137 -7.960374 2.426409 -1.880094 4.759402 14.532773 -3.338656 -3.086241 4.420197 0.000007 0.000000 -95.928784 1.956278 -144.433735 0.000013 -0.000004 -10.347103 380.148768 -18.937225 1.309917 0.000007 0.000002 -12.496293 185.724072 185.434459 155.793036 -2.781497 -1.903800 5.072598 31.750503 17.630151 -21.673997 -4.012101 0.000007 0.000001 40.194997 19.822640 62.454956 -0.000006 0.000004 -10.346584 21.350408 -0.720174 -1.001849 -0.000004 -0.000008 -12.562593 993.588274 -185.949195 169.834225 2.047994 -0.047194 -2.693198 -19.382835 2.354619 -20.107486 -0.000006 0.000005 -18.824402 187.231140 166.247269 -165.772899 -0.000002 0.000002 -19.078203 27.794692 14.310990 54.461070 -2.129898 -0.022301 -2.538302 -511.814707 -7.621191 -94.540863 -0.000001 0.000000 -18.644600 389.835615 178.044617 107.885761 -0.000003 -0.000000 -18.801399 -43.430024 -13.054029 -60.388831
4.570389 -37.801998 34.764946 -372.143922 8.486069 -26.026282 -0.160399 1.630002 7.806312 15.546006 0.480663 -19.942976 -0.000002 0.000003 3.197996 -17.915537 -11.149722 -1.849396 0.000005 0.000006 7.440708 -49.377186 -10.556124 13.102812 -0.000003 -0.000001 2.173913 -5.541758 0.093917 -7.715212 2.426400 -1.880099 4.759401 14.213416 -3.139160 -2.955790 4.420196 0.000003 -0.000003 -94.705204 1.775520 -145.218155 -0.000004 0.000002 -10.347103 379.816547 -18.472064 1.106104 0.000002 -0.000001 -12.496298 186.618253 184.840560 156.366594 -2.781505 -1.903800 5.072607 31.708955 17.455068 -22.095884 -4.012105 0.000007 0.000000 39.002398 20.079276 62.775039 -0.000006 0.000002 -10.346594 20.176206 -0.963805 -1.098214 -0.000006 -0.000005 -12.562598 993.502050 -185.844557 169.346030 2.047989 -0.047197 -2.693192 -20.309668 3.276863 -19.791624 0.000002 -0.000006 -18.824402 188.022090 166.709673 -166.145458 0.000009 -0.000001 -19.078196 28.191054 14.300207 54.662018 -2.129897 -0.022298 -2.538298 -511.946065 -7.636081 -93.771496 -0.000007 0.000000 -18.644600 389.914900 177.815738 108.310346 0.000002 -0.000001 -18.801399 -43.212520 -12.962785 -60.061678
4.653290 -37.867603 34.899147 -372.245692 8.175492 -25.670504 -0.160399 1.630004 7.806300 15.414924 0.503393 -19.945498 0.000007 -0.000004 3.198003 -17.514857 -11.134148 -1.784139 0.000001 0.000007 7.440707 -49.370260 -10.718647 13.182811 -0.000007 -0.000002 2.173903 -5.470227 -0.034929 -7.545342 2.426396 -1.880100 4.759394 13.908041 -2.892087 -2.726615 4.420190 0.000010 0.000003 -93.337902 1.719967 -146.069237 0.000002 -0.000002 -10.347102 379.680763 -18.012017 0.811679 -0.000003 0.000001 -12.496296 187.317515 184.341669 157.147148 -2.781500 -1.903803 5.072599 31.687563 17.302245 -22.450236 -4.012101 0.000008 0.000002 37.838425 20.283681 63.187016 -0.000009 -0.000001 -10.346594 18.943332 -1.197051 -1.348530 -0.000003 -0.000007 -12.562599 993.438775 -185.764630 168.821567 2.047994 -0.047194 -2.693200 -21.351188 4.238211 -19.499258 -0.000009 -0.000002 -18.824402 188.802493 167.196870 -166.490642 -0.000001 -0.000000 -19.078196 28.688222 14.272339 54.921244 -2.129897 -0.022294 -2.538304 -512.121519 -7.608246 -92.974960 0.000002 0.000001 -18.644598 390.085764 177.796313 108.783207 0.000003 -0.000001 -18.801397 -43.215594 -12.909890 -59.936993
